<svg viewBox="0 0 800 600" xmlns="http://www.w3.org/2000/svg" font-family="ui-monospace, 'Space Mono', monospace">
  <defs>
    <linearGradient id="bg2" x1="0" y1="0" x2="0" y2="1">
      <stop offset="0" stop-color="#0c0b0d"/>
      <stop offset="1" stop-color="#050506"/>
    </linearGradient>
  </defs>
  <rect width="800" height="600" fill="url(#bg2)"/>
  <!-- chrome -->
  <rect x="0" y="0" width="800" height="44" fill="#131215"/>
  <circle cx="26" cy="22" r="6" fill="#c2303d"/>
  <circle cx="46" cy="22" r="6" fill="#3a373c"/>
  <circle cx="66" cy="22" r="6" fill="#3a373c"/>
  <rect x="100" y="12" width="600" height="20" rx="10" fill="#1c1a1e"/>
  <text x="120" y="26" font-size="11" fill="#6f6b74">pokimemory.netlify.app</text>

  <!-- header -->
  <text x="40" y="92" font-size="22" fill="#eef0f6" font-weight="700">PokéMemory</text>
  <text x="40" y="112" font-size="10" fill="#6f6b74">Don't click the same card twice!</text>
  <g font-size="11">
    <rect x="562" y="70" width="92" height="28" rx="14" fill="none" stroke="#2b282e"/>
    <text x="578" y="88" fill="#8b8791">SCORE 08</text>
    <rect x="666" y="70" width="94" height="28" rx="14" fill="none" stroke="#7e1d27"/>
    <text x="682" y="88" fill="#c2303d">BEST 11</text>
  </g>

  <!-- 4x3 card grid -->
  <!-- row 1 -->
  <g>
    <rect x="40"  y="140" width="166" height="128" rx="12" fill="#131215" stroke="#232126"/>
    <text x="112" y="216" font-size="34" fill="#3a373c" font-weight="700">?</text>

    <rect x="224" y="140" width="166" height="128" rx="12" fill="#161014" stroke="#c2303d"/>
    <circle cx="307" cy="192" r="26" fill="none" stroke="#c2303d" stroke-width="2.5"/>
    <circle cx="298" cy="186" r="4" fill="#c2303d"/>
    <circle cx="316" cy="186" r="4" fill="#c2303d"/>
    <path d="M296 202 q11 8 22 0" stroke="#c2303d" stroke-width="2.5" fill="none" stroke-linecap="round"/>
    <text x="284" y="248" font-size="10" fill="#c9c6cf">sprite #025</text>

    <rect x="408" y="140" width="166" height="128" rx="12" fill="#131215" stroke="#232126"/>
    <text x="480" y="216" font-size="34" fill="#3a373c" font-weight="700">?</text>

    <rect x="592" y="140" width="166" height="128" rx="12" fill="#131215" stroke="#232126"/>
    <text x="664" y="216" font-size="34" fill="#3a373c" font-weight="700">?</text>
  </g>
  <!-- row 2 -->
  <g>
    <rect x="40"  y="284" width="166" height="128" rx="12" fill="#131215" stroke="#232126"/>
    <text x="112" y="360" font-size="34" fill="#3a373c" font-weight="700">?</text>

    <rect x="224" y="284" width="166" height="128" rx="12" fill="#131215" stroke="#232126"/>
    <text x="296" y="360" font-size="34" fill="#3a373c" font-weight="700">?</text>

    <rect x="408" y="284" width="166" height="128" rx="12" fill="#161014" stroke="#7e1d27"/>
    <path d="M491 316 l10 18 20 3 -14 15 3 20 -19 -9 -19 9 3 -20 -14 -15 20 -3 z" fill="none" stroke="#c2303d" stroke-width="2.5" stroke-linejoin="round"/>
    <text x="468" y="392" font-size="10" fill="#c9c6cf">sprite #133</text>

    <rect x="592" y="284" width="166" height="128" rx="12" fill="#131215" stroke="#232126"/>
    <text x="664" y="360" font-size="34" fill="#3a373c" font-weight="700">?</text>
  </g>
  <!-- row 3 -->
  <g>
    <rect x="40"  y="428" width="166" height="128" rx="12" fill="#131215" stroke="#232126"/>
    <text x="112" y="504" font-size="34" fill="#3a373c" font-weight="700">?</text>
    <rect x="224" y="428" width="166" height="128" rx="12" fill="#131215" stroke="#232126"/>
    <text x="296" y="504" font-size="34" fill="#3a373c" font-weight="700">?</text>
    <rect x="408" y="428" width="166" height="128" rx="12" fill="#131215" stroke="#232126"/>
    <text x="480" y="504" font-size="34" fill="#3a373c" font-weight="700">?</text>
    <rect x="592" y="428" width="166" height="128" rx="12" fill="#131215" stroke="#232126"/>
    <text x="664" y="504" font-size="34" fill="#3a373c" font-weight="700">?</text>
  </g>

  <!-- footer -->
  <text x="40" y="584" font-size="10" fill="#6f6b74">12 cards · Promise.all fetch · Fisher–Yates shuffle</text>
  <text x="620" y="584" font-size="10" fill="#c2303d">React + Vite ↗</text>
</svg>
